<?xml version="1.0" standalone="no"?><!DOCTYPE svg PUBLIC "-//W3C//DTD SVG 1.1//EN" "http://www.w3.org/Graphics/SVG/1.1/DTD/svg11.dtd"><svg t="1605148385109" class="icon" viewBox="0 0 1024 1024" version="1.1" xmlns="http://www.w3.org/2000/svg" p-id="6241" width="16" height="16" xmlns:xlink="http://www.w3.org/1999/xlink"><defs><style type="text/css"></style></defs><path d="M374.784 992.768L97.28 860.16a72.704 72.704 0 0 1-26.624-62.464V124.416c0-27.648 11.776-44.032 26.624-36.864l277.504 132.096a75.264 75.264 0 0 1 26.624 62.464v673.28c0 27.648-12.288 44.032-26.624 37.376z" p-id="6242" fill="#ffffff"></path><path d="M683.52 870.4H138.752a74.752 74.752 0 0 1-74.752-75.264V122.368A74.752 74.752 0 0 1 138.752 47.104h544.768a75.264 75.264 0 0 1 74.752 75.264v190.464a26.112 26.112 0 0 1-25.6 25.6 25.6 25.6 0 0 1-25.6-25.6V122.368a24.064 24.064 0 0 0-23.552-24.064H138.752a23.552 23.552 0 0 0-23.552 24.064v673.28a23.552 23.552 0 0 0 23.552 24.064h544.768a24.064 24.064 0 0 0 23.552-24.064v-177.152a25.6 25.6 0 0 1 25.6-25.6 25.6 25.6 0 0 1 25.6 25.6v177.152A75.264 75.264 0 0 1 683.52 870.4z" p-id="6243" fill="#ffffff"></path><path d="M900.096 484.864h-313.344A25.6 25.6 0 0 1 563.2 460.8a25.6 25.6 0 0 1 25.6-25.6h313.344a25.6 25.6 0 0 1 25.6 25.6 25.6 25.6 0 0 1-27.648 24.064z" p-id="6244" fill="#ffffff"></path><path d="M850.944 589.312a26.112 26.112 0 0 1-18.432-7.68 26.112 26.112 0 0 1 0-36.352L921.6 460.8l-89.088-88.064a25.6 25.6 0 0 1 37.888-36.352l102.4 102.4a27.136 27.136 0 0 1 7.68 18.432 26.112 26.112 0 0 1-7.68 17.92l-102.4 102.4a25.6 25.6 0 0 1-19.456 11.776z" p-id="6245" fill="#ffffff"></path></svg>