<?xml version="1.0" standalone="no"?><!DOCTYPE svg PUBLIC "-//W3C//DTD SVG 1.1//EN" "http://www.w3.org/Graphics/SVG/1.1/DTD/svg11.dtd"><svg t="1605150019721" class="icon" viewBox="0 0 1024 1024" version="1.1" xmlns="http://www.w3.org/2000/svg" p-id="2008" xmlns:xlink="http://www.w3.org/1999/xlink" width="16" height="16"><defs><style type="text/css"></style></defs><path d="M755.851 316.833h178.396c23.895 53.16 38.215 111.397 40.613 172.866H770.17c-0.866-64.983-6.239-122.225-14.319-172.866zM677.89 72.239c102.327 39.774 186.317 115.03 238.967 210.026H750.013c-18.933-96.76-47.673-165.527-72.123-210.026zM528.467 282.262V40.965c36.799 1.614 72.486 7.432 106.641 17.002 25.928 43.56 59.33 116.32 80.43 224.297H528.467v-0.002zM301.474 697.133c-8.08-50.677-13.682-107.591-14.516-172.865h206.929v172.865H301.474z m-0.338-380.3h192.751v172.866H286.762c0.872-65.035 6.289-122.205 14.374-172.866z m86.56-259.626c34.08-9.15 69.504-15.008 106.191-16.185v241.24H306.836c21.222-108.583 54.876-181.59 80.86-225.055zM100.413 282.262c53.51-96.551 140.132-172.222 244.799-211.446-24.613 44.472-53.77 113.647-72.9 211.446H100.415zM252.18 489.699H43.133C45.44 428.27 59.253 369.89 83.1 316.833h183.412c-8.084 50.653-13.463 107.888-14.332 172.866z m14.732 207.434H84.414C60.471 643.904 45.143 585.944 42.88 524.268h209.466c0.833 65.277 6.478 122.145 14.567 172.865z m5.672 34.57c19.269 98.776 48.836 167.876 73.604 211.833-105.044-39.093-191.706-115.03-245.281-211.833h171.677z m221.304 0v241.243c-36.276-1.164-71.323-6.899-105.052-15.861-26.03-42.662-59.878-116.005-81.302-225.382h186.354z m220.951 0c-21.294 108.72-54.868 181.816-80.84 224.582-33.764 9.37-69.196 14.422-105.532 16.034V731.703h186.372zM528.467 524.268h206.928c-0.833 65.282-6.44 122.183-14.52 172.865H528.468V524.268zM735.59 489.7H528.467V316.833h192.75c8.087 50.657 13.499 107.828 14.374 172.866z m34.42 34.57h204.477c-2.285 61.626-17.5 119.61-41.323 172.864h-177.72c8.085-50.717 13.733-107.579 14.567-172.865z m146.596 207.434C864.095 827.09 779.71 902.39 676.938 942.076c24.616-44.013 53.802-112.617 72.872-210.373h166.797z" p-id="2009" fill="#ffffff"></path></svg>