<?xml version="1.0" standalone="no"?><!DOCTYPE svg PUBLIC "-//W3C//DTD SVG 1.1//EN" "http://www.w3.org/Graphics/SVG/1.1/DTD/svg11.dtd"><svg t="1605149921971" class="icon" viewBox="0 0 1024 1024" version="1.1" xmlns="http://www.w3.org/2000/svg" p-id="974" xmlns:xlink="http://www.w3.org/1999/xlink" width="16" height="16"><defs><style type="text/css"></style></defs><path d="M902.5 376.7L563.6 84.2c-31.7-27.4-78.5-27.4-110.3 0L114.5 376.6c-18.8 16.2-29.6 39.9-29.6 64.8v428.8c0 47.1 37.9 85.3 84.7 85.3h677.8c46.8 0 84.7-38.2 84.7-85.3V441.4c0-24.9-10.8-48.5-29.6-64.7z m-327.1 445c0 32.8-26.6 59.5-59.5 59.5s-59.5-26.6-59.5-59.5V628.5c0-32.8 26.6-59.5 59.5-59.5s59.5 26.6 59.5 59.5v193.2z" fill="#ffffff" p-id="975"></path></svg>