<?xml version="1.0" standalone="no"?><!DOCTYPE svg PUBLIC "-//W3C//DTD SVG 1.1//EN" "http://www.w3.org/Graphics/SVG/1.1/DTD/svg11.dtd"><svg t="1605149670538" class="icon" viewBox="0 0 1042 1024" version="1.1" xmlns="http://www.w3.org/2000/svg" p-id="21742" xmlns:xlink="http://www.w3.org/1999/xlink" width="16.28125" height="16"><defs><style type="text/css"></style></defs><path d="M492.939901 0.317383c25.1913-0.357413 54.734628-1.543183 75.16603 4.99537 9.229662 56.652043 27.159174 70.271576 37.381182 133.037482 37.88997 5.605075 63.623697 32.146135 96.39215 38.768785 50.378396-36.922853 71.953519-33.504303 117.445871-66.827798a314.077616 314.077616 0 0 1 85.06006 85.980924c-32.966082 45.98432-30.174056 67.277718-66.684833 118.20695l20.814044 43.200704q9.851981 28.244027 19.716576 56.492259c61.697872 9.969717 75.266947 28.042194 130.981307 37.040589a1082.813845 1082.813845 0 0 1 0 121.970297c-56.345089 9.330578-70.746725 26.721869-133.172038 37.057408-4.112351 38.726736-30.413733 64.611838-38.339889 97.481209 36.510777 51.690312 33.718751 74.753954 66.684833 121.402641l-20.771995 24.993673a358.136112 358.136112 0 0 1-64.288065 59.986495c-46.152514-33.638859-68.539175-31.734059-119.636601-69.022734-29.534918 17.302988-61.655824 27.024618-96.392151 40.984745-9.856186 62.753291-27.27691 77.369376-36.161773 134.025624-36.784092 0.840971-85.699198 8.872249-120.679406-1.009166-8.901683-56.639429-26.070116-71.356429-35.938916-134.13495-36.447704-5.30653-68.089255-24.808658-96.387946-39.878867-38.684688 28.059013-51.29926 18.703206-86.254239 44.029061-7.413164 5.214023-27.815131 25.94397-34.614386 22.996365-35.320802-16.588162-56.664658-58.367625-84.071918-83.979411 33.294061-46.652892 31.149583-69.825861 68.021978-121.520378-14.502553-29.946994-32.823117-59.84353-39.433153-97.481209-62.429517-10.339744-77.058216-27.621708-133.428534-36.948081-0.630729-21.743317-10.062224-107.438311 1.980488-120.973747 55.710155-9.330578 69.750174-27.810927 131.448046-38.146466 5.428471-35.2325 23.236042-70.052924 39.433153-96.37533-28.113676-39.134608-18.921858-51.105836-44.285558-86.426639-5.802703-8.409715-26.772327-31.393465-19.76283-37.990886 11.697913-25.565533 58.027032-65.831247 81.103289-81.994719 45.832945 33.323495 68.038797 29.904946 118.783016 66.827798l70.103382-32.12511 27.382031-7.753757c9.856186-62.765906 27.037233-76.276113 35.938916-132.923951z m0.391051 317.685383c-17.324012 6.816074-36.750453 5.335964-52.489234 11.575973a196.484575 196.484575 0 0 0-113.177941 114.948185c-44.205665 114.266999 32.680151 215.456891 110.718099 246.438281 22.378251 8.884864 56.345089 18.972316 89.395268 13.232686 77.920212-13.54805 130.148745-52.665839 157.463499-116.6049 47.30885-110.730714-20.49027-219.043635-97.59474-253.052521-26.599928-11.731552-55.235006-16.739537-94.314951-16.537704z" fill="#ffffff" p-id="21743"></path></svg>