<?xml version="1.0" standalone="no"?><!DOCTYPE svg PUBLIC "-//W3C//DTD SVG 1.1//EN" "http://www.w3.org/Graphics/SVG/1.1/DTD/svg11.dtd"><svg t="1608274302521" class="icon" viewBox="0 0 1165 1024" version="1.1" xmlns="http://www.w3.org/2000/svg" p-id="4954" xmlns:xlink="http://www.w3.org/1999/xlink" width="18.203125" height="16"><defs><style type="text/css"></style></defs><path d="M539.41345 65.4C390.71345 75.3 247.91345 121.1 135.81345 198.1c-36.6 25.2-89.2 63.5-117.6 95.4-44.2 49.9-1.9 126.5 62.1 117.8 28.8-3.9 43.4-21.8 65.4-41.1 124.9-110.1 300.8-174.1 480.8-161.4 282.4 19.9 401.2 183.7 442.9 199 62.3 22.9 120.7-45.3 85.8-102.8-8.8-14.5-40.3-42.5-53.6-52.9-70-55.3-111.3-82.6-199.6-122.4-99.5-44.8-239.4-72.5-362.6-64.3z" p-id="4955" fill="#ffffff"></path><path d="M543.51345 447.4c99.1-8.7 188 16.1 258 58.6 57 34.6 60 47.8 90.3 69.4 41 29.2 90.1 11.4 107.7-24.6 25-51.6-16.7-86.7-40.2-105.9-41.9-34.5-40.2-34.8-92.9-66.8-64.2-39-154.9-67.6-242.9-74-127.8-9.4-280.4 31.5-373.3 105.3-23.2 18.4-71.3 51.6-83.5 76.4-22.7 46.4 4.3 90.4 42.4 101.7 52.3 15.5 82.9-31.2 107-49.2 59.8-44.5 129.2-82.2 227.4-90.9z" p-id="4956" fill="#ffffff"></path><path d="M559.81345 685.8c65.9-9.6 122.3 20.3 155.1 52.1 16.2 15.8 37.9 37.4 75.7 30.5 53.6-9.9 80.1-77.9 32.2-126.1-15.9-16.1-35.2-32.2-57.5-46.5-42.7-27.4-95.1-49.5-158.1-53.5-97.9-6.2-169.7 22.6-239 77.1-15.9 12.5-38.6 31.2-47.3 56.9-20.4 61.1 44.2 116.6 101.6 84.4 35.9-20.3 47.2-61.8 137.3-74.9zM498.81345 894.2c26.6 110.5 194.2 71.4 167.7-40.2-9.6-40.3-51-74.5-102.6-63.5-40.4 8.5-77.8 51.1-65.1 103.7z" p-id="4957" fill="#ffffff"></path></svg>