<?xml version="1.0" encoding="utf-8"?>
<!-- Generator: Adobe Illustrator 24.2.3, SVG Export Plug-In . SVG Version: 6.00 Build 0)  -->
<svg version="1.1" id="Layer_1" xmlns="http://www.w3.org/2000/svg" xmlns:xlink="http://www.w3.org/1999/xlink" x="0px" y="0px"
	 viewBox="0 0 251.2 114.2" style="enable-background:new 0 0 251.2 114.2;" xml:space="preserve">
<style type="text/css">
	.st0{fill:#FED206;}
	.st1{fill:#EB6F53;}
	.st2{fill:#3BA9B6;}
	.st3{fill:#414141;}
</style>
<g>
	<path class="st0" d="M219.6,43.3C219.5,43.3,219.5,43.3,219.6,43.3c-1.3,0-2.2-1-2.2-2.2c0-0.2,0-0.4,0-0.6
		c0-11.9-9.7-21.6-21.6-21.6c-0.2,0-0.4,0-0.6,0c-1.2,0-2.2-0.9-2.2-2.1c0-1.2,0.9-2.2,2.1-2.2c0.2,0,0.5,0,0.7,0
		c14.3,0,25.9,11.6,25.9,25.9c0,0.2,0,0.5,0,0.7C221.7,42.4,220.7,43.3,219.6,43.3z"/>
	<path class="st1" d="M212.1,43.3C212,43.3,212,43.3,212.1,43.3c-1.3-0.1-2.2-1.1-2.2-2.3c0-0.2,0-0.4,0-0.6
		c0-7.7-6.3-14.1-14.1-14.1c-0.2,0-0.4,0-0.6,0c-1.2,0.1-2.2-0.9-2.3-2.1c0-1.2,0.9-2.2,2.1-2.3c0.3,0,0.5,0,0.8,0
		c10.2,0,18.4,8.3,18.4,18.4c0,0.2,0,0.5,0,0.8C214.2,42.4,213.2,43.3,212.1,43.3z"/>
	<path class="st2" d="M204.3,43.3c-0.1,0-0.1,0-0.2,0c-1.2-0.1-2.1-1.1-2-2.3c0-0.2,0-0.4,0-0.5c0-3.5-2.8-6.3-6.3-6.3
		c-0.1,0-0.3,0-0.5,0c-1.2,0.1-2.3-0.8-2.3-2c-0.1-1.2,0.8-2.3,2-2.3c0.3,0,0.6,0,0.9,0c5.9,0,10.7,4.8,10.7,10.7c0,0.3,0,0.5,0,0.9
		C206.4,42.4,205.4,43.3,204.3,43.3z"/>
	<g>
		<g>
			<g>
				<path class="st3" d="M61.9,89.9v-4.7h-1.7v-0.9h4.4v0.9h-1.7v4.7H61.9z"/>
			</g>
			<g>
				<path class="st3" d="M65.6,89.9v-5.6h3.8v0.9h-2.9v1.4h2.8v0.9h-2.8V89h2.9v0.9H65.6z"/>
			</g>
			<g>
				<path class="st3" d="M70.7,89.9v-5.6h1V89h2.5v0.9H70.7z"/>
			</g>
			<g>
				<path class="st3" d="M74.9,89.9v-5.6h3.8v0.9h-2.9v1.4h2.8v0.9h-2.8V89h2.9v0.9H74.9z"/>
			</g>
			<g>
				<path class="st3" d="M79.8,87.1c0-1.7,1.3-2.9,2.9-2.9c1.1,0,1.8,0.6,2.2,1.3l-0.8,0.4c-0.3-0.5-0.8-0.8-1.4-0.8
					c-1.1,0-1.9,0.8-1.9,2c0,1.2,0.8,2,1.9,2c0.6,0,1.1-0.4,1.4-0.8l0.8,0.4c-0.4,0.7-1.1,1.3-2.2,1.3C81.1,90,79.8,88.8,79.8,87.1z
					"/>
			</g>
			<g>
				<path class="st3" d="M85.5,87.1c0-1.7,1.2-2.9,2.9-2.9c1.7,0,2.9,1.2,2.9,2.9S90,90,88.3,90C86.7,90,85.5,88.8,85.5,87.1z
					 M90.2,87.1c0-1.2-0.7-2-1.9-2c-1.1,0-1.9,0.9-1.9,2c0,1.1,0.7,2,1.9,2C89.5,89.1,90.2,88.3,90.2,87.1z"/>
			</g>
			<g>
				<path class="st3" d="M96.9,89.9v-4.3l-1.7,4.3h-0.4l-1.7-4.3v4.3h-1v-5.6h1.4l1.5,3.8l1.5-3.8h1.4v5.6H96.9z"/>
			</g>
			<g>
				<path class="st3" d="M103,89.9v-5.6h1v5.6H103z"/>
			</g>
			<g>
				<path class="st3" d="M109.7,89.9l-2.9-4v4h-1v-5.6h1l2.9,3.9v-3.9h1v5.6H109.7z"/>
			</g>
			<g>
				<path class="st3" d="M112.4,89.9v-5.6h3.8v0.9h-2.9v1.4h2.8v0.9h-2.8v2.4H112.4z"/>
			</g>
			<g>
				<path class="st3" d="M120.3,89.9l-1.2-2.1h-1v2.1h-1v-5.6h2.5c1.1,0,1.8,0.7,1.8,1.8c0,1-0.7,1.5-1.3,1.6l1.4,2.2H120.3z
					 M120.4,86.1c0-0.5-0.4-0.9-1-0.9h-1.4V87h1.4C120,87,120.4,86.6,120.4,86.1z"/>
			</g>
			<g>
				<path class="st3" d="M126.6,89.9l-0.4-1.1h-2.6l-0.4,1.1h-1.1l2.2-5.6h1.2l2.2,5.6H126.6z M124.9,85.3l-1,2.7h2L124.9,85.3z"/>
			</g>
			<g>
				<path class="st3" d="M131.4,89.9v-5.6h2.1c1.1,0,1.7,0.8,1.7,1.6c0,0.9-0.6,1.6-1.7,1.6h-1.6v2.3H131.4z M134.7,86
					c0-0.7-0.5-1.2-1.2-1.2h-1.6v2.4h1.6C134.2,87.2,134.7,86.6,134.7,86z"/>
			</g>
			<g>
				<path class="st3" d="M139.4,89.9l-1.6-2.3h-1.2v2.3h-0.5v-5.6h2.1c1,0,1.7,0.6,1.7,1.6c0,1-0.7,1.6-1.6,1.6l1.6,2.3H139.4z
					 M139.4,86c0-0.7-0.5-1.2-1.2-1.2h-1.6v2.4h1.6C138.9,87.2,139.4,86.7,139.4,86z"/>
			</g>
			<g>
				<path class="st3" d="M141.2,87.1c0-1.6,1.1-2.9,2.7-2.9c1.6,0,2.7,1.3,2.7,2.9c0,1.6-1.1,2.9-2.7,2.9
					C142.3,90,141.2,88.8,141.2,87.1z M146.1,87.1c0-1.4-0.9-2.5-2.2-2.5c-1.4,0-2.2,1-2.2,2.5c0,1.4,0.9,2.5,2.2,2.5
					C145.2,89.6,146.1,88.5,146.1,87.1z"/>
			</g>
			<g>
				<path class="st3" d="M147,89.3l0.3-0.4c0.3,0.3,0.6,0.6,1.1,0.6c0.8,0,1.2-0.5,1.2-1.3v-4h0.5v4c0,1.2-0.8,1.7-1.7,1.7
					C147.9,90,147.4,89.8,147,89.3z"/>
			</g>
			<g>
				<path class="st3" d="M151.8,89.9v-5.6h3.5v0.4h-3.1v2.1h3v0.4h-3v2.2h3.1v0.4H151.8z"/>
			</g>
			<g>
				<path class="st3" d="M156.3,87.1c0-1.7,1.3-2.9,2.8-2.9c0.9,0,1.6,0.4,2,1l-0.4,0.3c-0.4-0.5-1-0.8-1.6-0.8
					c-1.3,0-2.3,1-2.3,2.5c0,1.4,1,2.5,2.3,2.5c0.7,0,1.3-0.3,1.6-0.8l0.4,0.3c-0.5,0.6-1.2,1-2,1C157.5,90,156.3,88.8,156.3,87.1z"
					/>
			</g>
			<g>
				<path class="st3" d="M163.5,89.9v-5.2h-1.8v-0.4h4.1v0.4H164v5.2H163.5z"/>
			</g>
		</g>
		<g>
			<polygon class="st3" points="33.7,86.5 41.2,79 48.6,86.5 49.8,86.5 41.2,77.9 32.6,86.5 			"/>
			<polygon class="st3" points="48.6,87.8 41.2,95.2 33.7,87.8 32.6,87.8 41.2,96.4 49.8,87.8 			"/>
			<polygon class="st3" points="40.3,86.5 47.8,79 55.3,86.5 56.4,86.5 47.8,77.9 39.2,86.5 			"/>
			<polygon class="st3" points="55.3,87.8 47.8,95.2 40.3,87.8 39.2,87.8 47.8,96.4 56.4,87.8 			"/>
		</g>
	</g>
</g>
<g>
	<path class="st3" d="M51.2,41.3c2,1.1,3.6,2.6,4.7,4.5c1.1,1.9,1.7,4,1.7,6.4c0,2.3-0.6,4.5-1.7,6.4c-1.1,1.9-2.7,3.4-4.7,4.6
		c-2,1.1-4.2,1.7-6.6,1.7c-2.4,0-4.6-0.6-6.6-1.7c-2-1.1-3.6-2.6-4.7-4.6c-1.1-1.9-1.7-4.1-1.7-6.4c0-2.3,0.6-4.5,1.7-6.4
		c1.1-1.9,2.7-3.4,4.7-4.5c2-1.1,4.2-1.6,6.6-1.6C47,39.6,49.2,40.2,51.2,41.3z M40.5,44.9c-1.3,0.7-2.3,1.7-3,3
		c-0.7,1.3-1.1,2.7-1.1,4.2s0.4,3,1.1,4.2c0.8,1.3,1.8,2.3,3,3c1.3,0.7,2.7,1.1,4.1,1.1c1.5,0,2.8-0.4,4.1-1.1c1.3-0.7,2.3-1.8,3-3
		c0.7-1.3,1.1-2.7,1.1-4.2s-0.4-2.9-1.1-4.2c-0.7-1.3-1.7-2.3-3-3c-1.3-0.7-2.6-1.1-4.1-1.1C43.2,43.8,41.8,44.2,40.5,44.9z"/>
	<path class="st3" d="M76.9,46.8c1.3,0.8,2.4,1.9,3.1,3.4c0.7,1.4,1.1,3.1,1.1,5c0,1.9-0.4,3.5-1.1,4.9c-0.7,1.4-1.8,2.5-3.1,3.3
		c-1.3,0.8-2.9,1.2-4.6,1.2c-1.4,0-2.6-0.3-3.7-0.8c-1.1-0.5-2-1.3-2.7-2.4v9.8h-4.6V45.7H66v3.1c0.7-1.1,1.5-1.8,2.6-2.4
		c1.1-0.5,2.3-0.8,3.7-0.8C74,45.6,75.6,46,76.9,46.8z M75.1,59.1c1-1.1,1.5-2.4,1.5-4.1c0-1.7-0.5-3-1.5-4.1
		c-1-1.1-2.2-1.6-3.8-1.6c-1.6,0-2.8,0.5-3.8,1.6c-1,1-1.5,2.4-1.5,4.1c0,1.7,0.5,3,1.5,4.1c1,1.1,2.3,1.6,3.8,1.6
		C72.8,60.7,74.1,60.2,75.1,59.1z"/>
	<path class="st3" d="M99.3,48.1c1.5,1.7,2.3,4.1,2.3,7.2c0,0.6,0,1.1,0,1.4H87.7c0.3,1.3,0.9,2.4,1.9,3.1c0.9,0.8,2.1,1.1,3.5,1.1
		c1,0,1.9-0.2,2.7-0.5c0.9-0.4,1.6-0.9,2.3-1.6l2.5,2.6c-0.9,1-2.1,1.8-3.4,2.4c-1.3,0.6-2.8,0.8-4.5,0.8c-1.9,0-3.6-0.4-5.1-1.2
		c-1.5-0.8-2.6-1.9-3.4-3.3c-0.8-1.4-1.2-3.1-1.2-5c0-1.9,0.4-3.5,1.2-5c0.8-1.4,1.9-2.6,3.4-3.4c1.4-0.8,3.1-1.2,4.9-1.2
		C95.5,45.6,97.8,46.4,99.3,48.1z M97.4,53.6c0-1.4-0.5-2.5-1.4-3.3c-0.9-0.8-2-1.2-3.4-1.2c-1.3,0-2.4,0.4-3.3,1.2
		c-0.9,0.8-1.5,1.9-1.7,3.3H97.4z"/>
	<path class="st3" d="M121.5,47.5c1.2,1.3,1.9,3.1,1.9,5.3v11.7h-4.6V54.1c0-1.3-0.4-2.3-1.1-3.1c-0.7-0.8-1.8-1.1-3-1.1
		c-1.5,0-2.7,0.5-3.6,1.5s-1.3,2.3-1.3,3.8v9.2h-4.5V45.7h4.5v3.5c1.3-2.4,3.5-3.6,6.7-3.7C118.5,45.5,120.2,46.2,121.5,47.5z"/>
	<path class="st3" d="M156.5,39.9h4.9l-8.3,24.5h-4.9l-5.6-18.6l-5.7,18.6h-4.8l-8.3-24.5h5l5.8,19.4l5.7-19.4h4.6l5.8,19.5
		L156.5,39.9z"/>
	<path class="st3" d="M168,38.4c0.5,0.5,0.7,1.2,0.7,2c0,0.8-0.2,1.4-0.7,1.9c-0.5,0.5-1.1,0.8-1.9,0.8c-0.7,0-1.4-0.3-1.9-0.8
		c-0.5-0.5-0.7-1.2-0.7-1.9c0-0.8,0.2-1.4,0.7-2c0.5-0.5,1.1-0.8,1.9-0.8C166.9,37.7,167.6,37.9,168,38.4z M164,45.7h4.5v18.7H164
		V45.7z"/>
	<path class="st3" d="M174,39.9h16.9l0,4.1h-12.2v6.6h11.1v4.1h-11.1v9.7H174V39.9z"/>
	<path class="st3" d="M197.9,38.4c0.5,0.5,0.7,1.2,0.7,2c0,0.8-0.2,1.4-0.7,1.9c-0.5,0.5-1.1,0.8-1.9,0.8c-0.7,0-1.4-0.3-1.9-0.8
		c-0.5-0.5-0.7-1.2-0.7-1.9c0-0.8,0.2-1.4,0.7-2c0.5-0.5,1.1-0.8,1.9-0.8C196.8,37.7,197.4,37.9,197.9,38.4z M193.8,45.7h4.5v18.7
		h-4.5V45.7z"/>
</g>
<g>
</g>
<g>
</g>
<g>
</g>
<g>
</g>
<g>
</g>
<g>
</g>
</svg>
