<?xml version="1.0" encoding="UTF-8" standalone="no"?>
<!DOCTYPE svg PUBLIC "-//W3C//DTD SVG 1.1//EN" "http://www.w3.org/Graphics/SVG/1.1/DTD/svg11.dtd">
<svg xmlns="http://www.w3.org/2000/svg" version="1.1" viewBox="0.00 0.00 200.00 200.00">
    <g stroke-width="2.00" fill="none" stroke-linecap="butt">
        <path stroke="#babcbd" vector-effect="non-scaling-stroke" d="
  M 40.95 140.48
  Q 68.55 157.30 96.63 173.25
  C 102.24 176.44 107.25 175.99 112.94 172.72
  Q 137.94 158.32 162.95 143.97
  Q 165.51 142.50 167.13 140.70
  A 1.36 1.36 0.0 0 0 167.49 139.78
  C 167.62 114.80 168.11 94.50 166.94 76.07
  C 166.62 71.04 164.79 67.55 160.95 64.72"
        />
        <path stroke="#edefef" vector-effect="non-scaling-stroke" d="
  M 160.95 64.72
  C 158.30 59.86 148.11 55.99 143.18 53.08
  C 131.17 46.00 119.07 39.12 106.93 32.27
  C 102.78 29.92 100.95 27.45 95.80 30.54
  Q 86.26 36.27 72.74 43.77
  C 65.00 48.06 55.94 53.83 47.28 58.44
  C 36.47 64.19 37.03 68.23 37.02 79.49
  Q 36.99 107.48 37.00 135.54
  A 1.33 1.30 24.1 0 0 37.35 136.43
  L 40.95 140.48"
        />
        <path stroke="#cdcdcd" vector-effect="non-scaling-stroke" d="
  M 160.95 64.72
  C 162.26 67.10 163.25 68.73 163.25 71.58
  Q 163.26 102.51 163.09 133.43
  Q 163.07 137.05 160.83 138.33
  Q 133.44 154.04 106.07 169.70
  C 102.53 171.72 96.73 171.58 93.59 169.67
  C 81.84 162.53 70.33 156.39 57.98 148.94
  Q 49.77 143.99 40.95 140.48"
        />
        <path stroke="#848484" vector-effect="non-scaling-stroke" d="
  M 155.05 66.47
  A 0.30 0.30 0.0 0 0 155.05 65.95
  L 100.11 34.53
  A 0.30 0.30 0.0 0 0 99.81 34.53
  L 44.98 65.96
  A 0.30 0.30 0.0 0 0 44.98 66.48
  L 99.82 97.91
  A 0.30 0.30 0.0 0 0 100.12 97.91
  L 155.05 66.47"
        />
        <path stroke="#848484" vector-effect="non-scaling-stroke" d="
  M 97.83 102.22
  A 0.32 0.32 0.0 0 0 97.67 101.94
  L 42.48 70.37
  A 0.32 0.32 0.0 0 0 42.00 70.65
  L 42.00 133.51
  A 0.32 0.32 0.0 0 0 42.16 133.79
  L 97.04 165.13
  A 0.32 0.32 0.0 0 0 97.52 164.85
  L 97.83 102.22"
        />
        <path stroke="#848484" vector-effect="non-scaling-stroke" d="
  M 102.35 101.92
  A 0.32 0.32 0.0 0 0 102.19 102.20
  L 102.47 164.86
  A 0.32 0.32 0.0 0 0 102.95 165.14
  L 157.78 133.85
  A 0.32 0.32 0.0 0 0 157.94 133.57
  L 157.72 70.85
  A 0.32 0.32 0.0 0 0 157.24 70.57
  L 102.35 101.92"
        />
        <path stroke="#848484" vector-effect="non-scaling-stroke" d="
  M 101.2539 41.9921
  A 1.17 1.17 0.0 0 0 100.0859 40.8201
  L 100.0459 40.8200
  A 1.17 1.17 0.0 0 0 98.8739 41.9880
  L 98.7861 92.2679
  A 1.17 1.17 0.0 0 0 99.9541 93.4399
  L 99.9941 93.4400
  A 1.17 1.17 0.0 0 0 101.1661 92.2720
  L 101.2539 41.9921"
        />
        <path stroke="#848484" vector-effect="non-scaling-stroke" d="
  M 93.8121 104.2576
  A 1.09 1.09 0.0 0 0 92.3238 103.8561
  L 48.3895 129.1194
  A 1.09 1.09 0.0 0 0 47.9879 130.6077
  L 48.0079 130.6424
  A 1.09 1.09 0.0 0 0 49.4962 131.0439
  L 93.4305 105.7806
  A 1.09 1.09 0.0 0 0 93.8321 104.2923
  L 93.8121 104.2576"
        />
        <path stroke="#848484" vector-effect="non-scaling-stroke" d="
  M 152.0194 130.6077
  A 1.09 1.09 0.0 0 0 151.6178 129.1194
  L 107.6488 103.8361
  A 1.09 1.09 0.0 0 0 106.1606 104.2377
  L 106.1406 104.2723
  A 1.09 1.09 0.0 0 0 106.5422 105.7606
  L 150.5112 131.0439
  A 1.09 1.09 0.0 0 0 151.9994 130.6423
  L 152.0194 130.6077"
        />
    </g>
    <path fill="#dadedf" d="
  M 0.00 0.00
  L 200.00 0.00
  L 200.00 200.00
  L 0.00 200.00
  L 0.00 0.00
  Z
  M 40.95 140.48
  Q 68.55 157.30 96.63 173.25
  C 102.24 176.44 107.25 175.99 112.94 172.72
  Q 137.94 158.32 162.95 143.97
  Q 165.51 142.50 167.13 140.70
  A 1.36 1.36 0.0 0 0 167.49 139.78
  C 167.62 114.80 168.11 94.50 166.94 76.07
  C 166.62 71.04 164.79 67.55 160.95 64.72
  C 158.30 59.86 148.11 55.99 143.18 53.08
  C 131.17 46.00 119.07 39.12 106.93 32.27
  C 102.78 29.92 100.95 27.45 95.80 30.54
  Q 86.26 36.27 72.74 43.77
  C 65.00 48.06 55.94 53.83 47.28 58.44
  C 36.47 64.19 37.03 68.23 37.02 79.49
  Q 36.99 107.48 37.00 135.54
  A 1.33 1.30 24.1 0 0 37.35 136.43
  L 40.95 140.48
  Z"
    />
    <path fill="#ffffff" d="
  M 160.95 64.72
  C 162.26 67.10 163.25 68.73 163.25 71.58
  Q 163.26 102.51 163.09 133.43
  Q 163.07 137.05 160.83 138.33
  Q 133.44 154.04 106.07 169.70
  C 102.53 171.72 96.73 171.58 93.59 169.67
  C 81.84 162.53 70.33 156.39 57.98 148.94
  Q 49.77 143.99 40.95 140.48
  L 37.35 136.43
  A 1.33 1.30 24.1 0 1 37.00 135.54
  Q 36.99 107.48 37.02 79.49
  C 37.03 68.23 36.47 64.19 47.28 58.44
  C 55.94 53.83 65.00 48.06 72.74 43.77
  Q 86.26 36.27 95.80 30.54
  C 100.95 27.45 102.78 29.92 106.93 32.27
  C 119.07 39.12 131.17 46.00 143.18 53.08
  C 148.11 55.99 158.30 59.86 160.95 64.72
  Z
  M 155.05 66.47
  A 0.30 0.30 0.0 0 0 155.05 65.95
  L 100.11 34.53
  A 0.30 0.30 0.0 0 0 99.81 34.53
  L 44.98 65.96
  A 0.30 0.30 0.0 0 0 44.98 66.48
  L 99.82 97.91
  A 0.30 0.30 0.0 0 0 100.12 97.91
  L 155.05 66.47
  Z
  M 97.83 102.22
  A 0.32 0.32 0.0 0 0 97.67 101.94
  L 42.48 70.37
  A 0.32 0.32 0.0 0 0 42.00 70.65
  L 42.00 133.51
  A 0.32 0.32 0.0 0 0 42.16 133.79
  L 97.04 165.13
  A 0.32 0.32 0.0 0 0 97.52 164.85
  L 97.83 102.22
  Z
  M 102.35 101.92
  A 0.32 0.32 0.0 0 0 102.19 102.20
  L 102.47 164.86
  A 0.32 0.32 0.0 0 0 102.95 165.14
  L 157.78 133.85
  A 0.32 0.32 0.0 0 0 157.94 133.57
  L 157.72 70.85
  A 0.32 0.32 0.0 0 0 157.24 70.57
  L 102.35 101.92
  Z"
    />
    <path fill="#080808" d="
  M 155.05 66.47
  L 100.12 97.91
  A 0.30 0.30 0.0 0 1 99.82 97.91
  L 44.98 66.48
  A 0.30 0.30 0.0 0 1 44.98 65.96
  L 99.81 34.53
  A 0.30 0.30 0.0 0 1 100.11 34.53
  L 155.05 65.95
  A 0.30 0.30 0.0 0 1 155.05 66.47
  Z
  M 101.2539 41.9921
  A 1.17 1.17 0.0 0 0 100.0859 40.8201
  L 100.0459 40.8200
  A 1.17 1.17 0.0 0 0 98.8739 41.9880
  L 98.7861 92.2679
  A 1.17 1.17 0.0 0 0 99.9541 93.4399
  L 99.9941 93.4400
  A 1.17 1.17 0.0 0 0 101.1661 92.2720
  L 101.2539 41.9921
  Z"
    />
    <rect fill="#ffffff" x="-1.19" y="-26.31" transform="translate(100.02,67.13) rotate(0.1)" width="2.38"
          height="52.62" rx="1.17"/>
    <path fill="#9a9a9b" d="
  M 160.95 64.72
  C 164.79 67.55 166.62 71.04 166.94 76.07
  C 168.11 94.50 167.62 114.80 167.49 139.78
  A 1.36 1.36 0.0 0 1 167.13 140.70
  Q 165.51 142.50 162.95 143.97
  Q 137.94 158.32 112.94 172.72
  C 107.25 175.99 102.24 176.44 96.63 173.25
  Q 68.55 157.30 40.95 140.48
  Q 49.77 143.99 57.98 148.94
  C 70.33 156.39 81.84 162.53 93.59 169.67
  C 96.73 171.58 102.53 171.72 106.07 169.70
  Q 133.44 154.04 160.83 138.33
  Q 163.07 137.05 163.09 133.43
  Q 163.26 102.51 163.25 71.58
  C 163.25 68.73 162.26 67.10 160.95 64.72
  Z"
    />
    <path fill="#080808" d="
  M 97.83 102.22
  L 97.52 164.85
  A 0.32 0.32 0.0 0 1 97.04 165.13
  L 42.16 133.79
  A 0.32 0.32 0.0 0 1 42.00 133.51
  L 42.00 70.65
  A 0.32 0.32 0.0 0 1 42.48 70.37
  L 97.67 101.94
  A 0.32 0.32 0.0 0 1 97.83 102.22
  Z
  M 93.8121 104.2576
  A 1.09 1.09 0.0 0 0 92.3238 103.8561
  L 48.3895 129.1194
  A 1.09 1.09 0.0 0 0 47.9879 130.6077
  L 48.0079 130.6424
  A 1.09 1.09 0.0 0 0 49.4962 131.0439
  L 93.4305 105.7806
  A 1.09 1.09 0.0 0 0 93.8321 104.2923
  L 93.8121 104.2576
  Z"
    />
    <path fill="#080808" d="
  M 102.35 101.92
  L 157.24 70.57
  A 0.32 0.32 0.0 0 1 157.72 70.85
  L 157.94 133.57
  A 0.32 0.32 0.0 0 1 157.78 133.85
  L 102.95 165.14
  A 0.32 0.32 0.0 0 1 102.47 164.86
  L 102.19 102.20
  A 0.32 0.32 0.0 0 1 102.35 101.92
  Z
  M 152.0194 130.6077
  A 1.09 1.09 0.0 0 0 151.6178 129.1194
  L 107.6488 103.8361
  A 1.09 1.09 0.0 0 0 106.1606 104.2377
  L 106.1406 104.2723
  A 1.09 1.09 0.0 0 0 106.5422 105.7606
  L 150.5112 131.0439
  A 1.09 1.09 0.0 0 0 151.9994 130.6423
  L 152.0194 130.6077
  Z"
    />
    <rect fill="#ffffff" x="-26.43" y="-1.11" transform="translate(70.91,117.45) rotate(-29.9)" width="52.86"
          height="2.22" rx="1.09"/>
    <rect fill="#ffffff" x="-26.45" y="-1.11" transform="translate(129.08,117.44) rotate(29.9)" width="52.90"
          height="2.22" rx="1.09"/>
</svg>
